<svg width="14" height="14" viewBox="0 0 14 14" fill="none" xmlns="http://www.w3.org/2000/svg">
<path d="M6.9935 0.333496C3.3135 0.333496 0.333496 3.32016 0.333496 7.00016C0.333496 10.6802 3.3135 13.6668 6.9935 13.6668C10.6802 13.6668 13.6668 10.6802 13.6668 7.00016C13.6668 3.32016 10.6802 0.333496 6.9935 0.333496ZM7.00016 12.3335C4.0535 12.3335 1.66683 9.94683 1.66683 7.00016C1.66683 4.0535 4.0535 1.66683 7.00016 1.66683C9.94683 1.66683 12.3335 4.0535 12.3335 7.00016C12.3335 9.94683 9.94683 12.3335 7.00016 12.3335ZM6.8535 3.66683H6.8135C6.54683 3.66683 6.3335 3.88016 6.3335 4.14683V7.2935C6.3335 7.52683 6.4535 7.74683 6.66016 7.86683L9.42683 9.52683C9.6535 9.66016 9.94683 9.5935 10.0802 9.36683C10.2202 9.14016 10.1468 8.84016 9.9135 8.70683L7.3335 7.1735V4.14683C7.3335 3.88016 7.12016 3.66683 6.8535 3.66683V3.66683Z" fill="#474748"/>
</svg>
