<svg width="16" height="20" viewBox="0 0 16 20" fill="none" xmlns="http://www.w3.org/2000/svg">
<path fill-rule="evenodd" clip-rule="evenodd" d="M9.995 0.5C9.99695 1.28105 10 2.5 10 2.5L9.995 5C9.995 5.82843 10.6666 6.5 11.495 6.5H15.995L9.995 0.5ZM9.995 0.5H1.5C0.67157 0.5 0 1.17157 0 2V18C0 18.8284 0.67157 19.5 1.5 19.5H14.5C15.3284 19.5 16 18.8284 16 18L15.995 6.5H14.0625V16C14.0625 16.8284 13.3909 17.5 12.5625 17.5H3.5625C2.73407 17.5 2.0625 16.8284 2.0625 16V4C2.0625 3.17157 2.73407 2.5 3.5625 2.5H10C10 2.5 9.99695 1.28105 9.995 0.5ZM5.18024 7.38071C5.37149 7.53937 5.66593 7.53937 5.85719 7.38297L5.88235 7.36258L5.89755 7.35016C7.21017 6.27597 8.0691 5.57306 8.034 4.69696C8.01891 4.31161 7.79996 3.94214 7.44513 3.72455C6.78076 3.31427 5.96037 3.50696 5.51745 3.97388C5.07454 3.50696 4.25414 3.31656 3.58978 3.72455C3.23494 3.94214 3.016 4.31161 3.0009 4.69696C2.96819 5.57645 3.83136 6.28137 5.15255 7.35803L5.18024 7.38071ZM4.06289 9.5C3.5106 9.5 3.06289 9.94772 3.06289 10.5C3.06289 11.0523 3.5106 11.5 4.06289 11.5H12.0629C12.6152 11.5 13.0629 11.0523 13.0629 10.5C13.0629 9.94772 12.6152 9.5 12.0629 9.5H4.06289ZM4.06289 13.5C3.5106 13.5 3.06289 13.9478 3.06289 14.5C3.06289 15.0522 3.5106 15.5 4.06289 15.5H12.0629C12.6152 15.5 13.0629 15.0522 13.0629 14.5C13.0629 13.9478 12.6152 13.5 12.0629 13.5H4.06289Z" fill="#474748"/>
</svg>
