<svg width="20" height="19" viewBox="0 0 20 19" fill="none" xmlns="http://www.w3.org/2000/svg">
<path fill-rule="evenodd" clip-rule="evenodd" d="M16.3227 3.7209C14.4377 2.41849 12.069 3.0011 10.7626 4.54218C10.5725 4.7663 10.2936 4.89552 9.99977 4.89552C9.70594 4.89552 9.42699 4.7663 9.23698 4.54218C7.93262 3.00357 5.56278 2.42503 3.67475 3.72236C2.67857 4.4059 2.04624 5.58504 2.00265 6.82196C1.95561 8.245 2.54232 9.59953 3.81488 11.1893C5.10222 12.7975 6.98665 14.5209 9.36905 16.6932L9.3708 16.6948L9.47457 16.7899C9.77538 17.0691 10.2384 17.0694 10.5393 16.7941L10.5425 16.7912L10.6289 16.7128L10.6307 16.7112C13.0131 14.5297 14.8992 12.8024 16.1879 11.1917C17.4623 9.59888 18.0478 8.24518 17.997 6.8236C17.9536 5.58637 17.3217 4.40644 16.3253 3.72274L16.3227 3.7209ZM17.4582 2.07455C14.9483 0.34121 11.9539 0.862261 9.99959 2.4933C8.04394 0.862744 5.05014 0.350995 2.54264 2.07363M17.4582 2.07455C18.9981 3.13177 19.9311 4.90789 19.9957 6.75282C20.0705 8.8488 19.1717 10.6637 17.7496 12.4412C16.3627 14.1746 14.3795 15.9904 12.0837 18.0925L11.9796 18.1878L11.9761 18.191L11.8893 18.2697L11.8877 18.2712C10.822 19.2448 9.18279 19.2454 8.11661 18.2583L8.11391 18.2558L8.01974 18.1695L7.98973 18.1421C5.66244 16.0201 3.65427 14.189 2.25351 12.4391C0.831883 10.6632 -0.0658535 8.84911 0.00378024 6.75459L0.00384074 6.75282C0.0684628 4.90757 1.00235 3.13079 2.54264 2.07363" fill="#474748"/>
<path fill-rule="evenodd" clip-rule="evenodd" d="M9.99608 6.00002C10.3282 5.99685 10.6228 6.21246 10.7202 6.52995L12.0282 10.7921L12.2887 10.0123C12.3909 9.70631 12.6774 9.49995 13 9.49995H18C18.4142 9.49995 18.75 9.83574 18.75 10.25C18.75 10.6642 18.4142 11 18 11H13.5402L12.7093 13.4876C12.606 13.7969 12.3147 14.0039 11.9887 13.9999C11.6627 13.9959 11.3766 13.7817 11.2809 13.47L10.0284 9.38834L9.72107 10.4622C9.62878 10.7847 9.33353 11.0067 8.99806 11.0058L6.74806 11C6.33385 10.9989 5.99894 10.6622 6.00002 10.248C6.00109 9.83382 6.33775 9.49891 6.75197 9.49998L8.43495 9.50436L9.28217 6.54365C9.37353 6.22436 9.664 6.00318 9.99608 6.00002Z" fill="#474748"/>
</svg>
