<svg width="22" height="18" viewBox="0 0 22 18" fill="none" xmlns="http://www.w3.org/2000/svg">
<path d="M9.66015 17.4708C10.4202 18.1708 11.5902 18.1708 12.3502 17.4808L12.4502 17.3908L12.5105 17.3359C15.6336 14.4984 18.1103 12.2481 19.5651 10.0695H16.0668L14.7317 12.919C14.5984 13.2036 14.3016 13.3749 13.9884 13.348C13.6752 13.3211 13.412 13.1017 13.3291 12.7985L11.9006 7.57168L11.1701 9.57629C11.0622 9.87244 10.7806 10.0695 10.4654 10.0695L8.75015 10.1008C8.33594 10.1008 8.00015 9.76497 8.00015 9.35075C8.00015 8.93654 8.33594 8.60075 8.75015 8.60075H10.025L11.2981 4.84397C11.4099 4.53712 11.7075 4.3379 12.0338 4.3514C12.3601 4.36489 12.6401 4.58799 12.7262 4.90303L14.2385 10.4362L14.9108 9.0013C15.0342 8.73781 15.299 8.5695 15.5899 8.5695H20.403C20.8272 7.61367 21.0369 6.64871 21.0002 5.63075C20.9402 3.93075 20.0702 2.30075 18.6602 1.34075C16.0202 -0.469248 12.7602 0.380752 11.0002 2.44075C9.24015 0.380752 5.98015 -0.459248 3.34015 1.34075C1.93015 2.30075 1.06015 3.93075 1.00015 5.63075C0.870153 9.51075 4.30015 12.6208 9.55015 17.3708L9.66015 17.4708Z" fill="#89C15D"/>
</svg>
