<svg width="20" height="20" viewBox="0 0 20 20" fill="none" xmlns="http://www.w3.org/2000/svg">
<path d="M8.95842 6.6665C8.95842 6.09121 9.42479 5.62484 10.0001 5.62484C10.5754 5.62484 11.0417 6.09121 11.0417 6.6665C11.0417 7.2418 10.5754 7.70817 10.0001 7.70817C9.42479 7.70817 8.95842 7.2418 8.95842 6.6665ZM10.0001 14.1665C10.4584 14.1665 10.8334 13.7915 10.8334 13.3332V9.99984C10.8334 9.5415 10.4584 9.1665 10.0001 9.1665C9.54175 9.1665 9.16675 9.5415 9.16675 9.99984V13.3332C9.16675 13.7915 9.54175 14.1665 10.0001 14.1665ZM10.0001 1.6665C5.40008 1.6665 1.66675 5.39984 1.66675 9.99984C1.66675 14.5998 5.40008 18.3332 10.0001 18.3332C14.6001 18.3332 18.3334 14.5998 18.3334 9.99984C18.3334 5.39984 14.6001 1.6665 10.0001 1.6665ZM10.0001 16.6665C6.32508 16.6665 3.33341 13.6748 3.33341 9.99984C3.33341 6.32484 6.32508 3.33317 10.0001 3.33317C13.6751 3.33317 16.6667 6.32484 16.6667 9.99984C16.6667 13.6748 13.6751 16.6665 10.0001 16.6665Z" fill="#696A6B"/>
</svg>
