<svg width="18" height="18" viewBox="0 0 18 18" fill="none" xmlns="http://www.w3.org/2000/svg">
<path fill-rule="evenodd" clip-rule="evenodd" d="M17.64 9.20449C17.64 8.56631 17.5827 7.95268 17.4764 7.36359H9V10.8449H13.8436C13.635 11.9699 13.0009 12.9231 12.0477 13.5613V15.8195H14.9564C16.6582 14.2527 17.64 11.9454 17.64 9.20449Z" fill="#4285F4"/>
<path fill-rule="evenodd" clip-rule="evenodd" d="M9 17.9997C11.43 17.9997 13.4673 17.1938 14.9564 15.8193L12.0477 13.5611C11.2418 14.1011 10.2109 14.4202 9 14.4202C6.65591 14.4202 4.67182 12.837 3.96409 10.7097H0.957275V13.0415C2.43818 15.9829 5.48182 17.9997 9 17.9997Z" fill="#34A853"/>
<path fill-rule="evenodd" clip-rule="evenodd" d="M3.96409 10.7101C3.78409 10.1701 3.68182 9.59331 3.68182 9.00013C3.68182 8.40695 3.78409 7.83013 3.96409 7.29013V4.95831H0.957273C0.347727 6.17331 0 7.54786 0 9.00013C0 10.4524 0.347727 11.827 0.957273 13.042L3.96409 10.7101Z" fill="#FBBC05"/>
<path fill-rule="evenodd" clip-rule="evenodd" d="M9 3.57955C10.3214 3.57955 11.5077 4.03364 12.4405 4.92545L15.0218 2.34409C13.4632 0.891818 11.4259 0 9 0C5.48182 0 2.43818 2.01682 0.957275 4.95818L3.96409 7.29C4.67182 5.16273 6.65591 3.57955 9 3.57955Z" fill="#EA4335"/>
</svg>
