<svg width="32" height="32" viewBox="0 0 32 32" fill="none" xmlns="http://www.w3.org/2000/svg">
<rect width="32" height="32" rx="4" fill="white" fill-opacity="0.25"/>
<path fill-rule="evenodd" clip-rule="evenodd" d="M13.0001 11.3333C12.4478 11.3333 12.0001 11.781 12.0001 12.3333V19.6667C12.0001 20.219 12.4478 20.6667 13.0001 20.6667H16.6667C17.0349 20.6667 17.3334 20.9651 17.3334 21.3333C17.3334 21.7015 17.0349 22 16.6667 22H13.0001C11.7114 22 10.6667 20.9553 10.6667 19.6667V12.3333C10.6667 11.0447 11.7114 10 13.0001 10H16.6667C17.0349 10 17.3334 10.2985 17.3334 10.6667C17.3334 11.0349 17.0349 11.3333 16.6667 11.3333H13.0001Z" fill="white"/>
<path fill-rule="evenodd" clip-rule="evenodd" d="M18.2689 12.9361C18.5293 12.6757 18.9514 12.6757 19.2117 12.9361L21.8043 15.5287C22.0647 15.789 22.0647 16.2111 21.8043 16.4715L19.2117 19.0641C18.9514 19.3244 18.5293 19.3244 18.2689 19.0641C18.0086 18.8037 18.0086 18.3816 18.2689 18.1213L20.3901 16.0001L18.2689 13.8789C18.0086 13.6185 18.0086 13.1964 18.2689 12.9361Z" fill="white"/>
<path fill-rule="evenodd" clip-rule="evenodd" d="M14.0001 16C14.0001 15.6318 14.2986 15.3333 14.6667 15.3333H21.3334C21.7016 15.3333 22.0001 15.6318 22.0001 16C22.0001 16.3682 21.7016 16.6667 21.3334 16.6667H14.6667C14.2986 16.6667 14.0001 16.3682 14.0001 16Z" fill="white"/>
</svg>
