<svg width="18" height="18" viewBox="0 0 18 18" fill="none" xmlns="http://www.w3.org/2000/svg">
<mask id="path-1-inside-1_1_50046" fill="white">
<path d="M16 10H2C0.895431 10 0 10.8954 0 12V16C0 17.1046 0.89543 18 2 18H16C17.1046 18 18 17.1046 18 16V12C18 10.8954 17.1046 10 16 10Z"/>
<path d="M6 0H2C0.895431 0 0 0.89543 0 2V6C0 7.10457 0.895431 8 2 8H6C7.10457 8 8 7.10457 8 6V2C8 0.895431 7.10457 0 6 0Z"/>
<path d="M16 0H12C10.8954 0 10 0.89543 10 2V6C10 7.10457 10.8954 8 12 8H16C17.1046 8 18 7.10457 18 6V2C18 0.895431 17.1046 0 16 0Z"/>
</mask>
<path d="M16 8H2V12H16V8ZM2 8C-0.209139 8 -2 9.79086 -2 12H2V8ZM-2 12V16H2V12H-2ZM-2 16C-2 18.2091 -0.209139 20 2 20V16H2H-2ZM2 20H16V16H2V20ZM16 20C18.2091 20 20 18.2091 20 16H16V20ZM20 16V12H16V16H20ZM20 12C20 9.79086 18.2091 8 16 8V12H20ZM6 -2H2V2H6V-2ZM2 -2C-0.209139 -2 -2 -0.209139 -2 2H2V2V-2ZM-2 2V6H2V2H-2ZM-2 6C-2 8.20914 -0.209139 10 2 10V6H-2ZM2 10H6V6H2V10ZM6 10C8.20914 10 10 8.20914 10 6H6V6V10ZM10 6V2H6V6H10ZM10 2C10 -0.209139 8.20914 -2 6 -2V2V2H10ZM16 -2H12V2H16V-2ZM12 -2C9.79086 -2 8 -0.209139 8 2H12V2V-2ZM8 2V6H12V2H8ZM8 6C8 8.20914 9.79086 10 12 10V6H8ZM12 10H16V6H12V10ZM16 10C18.2091 10 20 8.20914 20 6H16V6V10ZM20 6V2H16V6H20ZM20 2C20 -0.209139 18.2091 -2 16 -2V2V2H20Z" fill="#474748" mask="url(#path-1-inside-1_1_50046)"/>
</svg>
