<svg width="18" height="18" viewBox="0 0 18 18" fill="none" xmlns="http://www.w3.org/2000/svg">
<path d="M6 0H2C0.895431 0 0 0.89543 0 2V6C0 7.10457 0.895431 8 2 8H6C7.10457 8 8 7.10457 8 6V2C8 0.895431 7.10457 0 6 0Z" fill="#89C15D"/>
<path d="M16 10H2C0.895431 10 0 10.8954 0 12V16C0 17.1046 0.89543 18 2 18H16C17.1046 18 18 17.1046 18 16V12C18 10.8954 17.1046 10 16 10Z" fill="#89C15D"/>
<path d="M12 0H16C17.1046 0 18 0.895431 18 2V6C18 7.10457 17.1046 8 16 8H12C10.8954 8 10 7.10457 10 6V2C10 0.89543 10.8954 0 12 0Z" fill="#89C15D"/>
</svg>
