<svg width="24" height="24" viewBox="0 0 24 24" fill="none" xmlns="http://www.w3.org/2000/svg">
<path d="M6.99344 4C6.44236 4 5.99563 4.44772 5.99563 5V19C5.99563 19.5523 6.44236 20 6.99344 20H16.9716C17.5226 20 17.9694 19.5523 17.9694 19V12C17.9694 11.4477 18.4161 11 18.9672 11C19.5183 11 19.965 11.4477 19.965 12V20C19.965 21.1 19.067 22 17.9694 22H5.98565C4.88805 22 4 21.1 4 20L4.00998 4C4.00998 2.9 4.89803 2 5.99563 2H9.98688C10.538 2 10.9847 2.44772 10.9847 3C10.9847 3.55228 10.538 4 9.98688 4H6.99344Z" fill="#232425"/>
<path fill-rule="evenodd" clip-rule="evenodd" d="M9.52635 16.6667C10.036 16.6667 10.4474 16.22 10.4474 15.6667V15C10.4474 14.4467 10.036 14 9.52635 14H8.60529C8.26757 14 7.99125 14.3 7.99125 14.6667V17.5C7.99125 17.7733 8.20002 18 8.45178 18C8.70353 18 8.91231 17.7733 8.91231 17.5V16.6667H9.52635ZM9.52635 15.6667H8.91231V15H9.52635V15.6667Z" fill="#232425"/>
<path fill-rule="evenodd" clip-rule="evenodd" d="M12.5965 18C13.1062 18 13.5176 17.5533 13.5176 17V15C13.5176 14.4467 13.1062 14 12.5965 14H11.3685C11.1965 14 11.0614 14.1467 11.0614 14.3333V17.6667C11.0614 17.8533 11.1965 18 11.3685 18H12.5965ZM12.5965 17H11.9825V15H12.5965V17Z" fill="#232425"/>
<path d="M15.9738 14.5C15.9738 14.7733 15.765 15 15.5132 15H15.0527V15.6667H15.5132C15.765 15.6667 15.9738 15.8933 15.9738 16.1667C15.9738 16.44 15.765 16.6667 15.5132 16.6667H15.0527V17.5C15.0527 17.7733 14.8439 18 14.5922 18C14.3404 18 14.1316 17.7733 14.1316 17.5V14.6667C14.1316 14.3 14.408 14 14.7457 14H15.5132C15.765 14 15.9738 14.2267 15.9738 14.5Z" fill="#232425"/>
<path d="M11.241 9.44271C10.8514 9.83323 10.8514 10.4664 11.241 10.8569C11.6307 11.2474 12.2625 11.2474 12.6521 10.8569L18.0039 5.49343V8.57907C18.0039 9.13136 18.4506 9.57907 19.0017 9.57907C19.5528 9.57907 19.9995 9.13136 19.9995 8.57907V3.10949C20.0076 2.84342 19.9104 2.57472 19.7077 2.37164C19.5041 2.16752 19.2343 2.07009 18.9674 2.07935L13.514 2.07935C12.963 2.07935 12.5162 2.52707 12.5162 3.07935C12.5162 3.63164 12.963 4.07935 13.514 4.07935L16.5927 4.07935L11.241 9.44271Z" fill="#232425"/>
</svg>
