<svg width="24" height="24" viewBox="0 0 24 24" fill="none" xmlns="http://www.w3.org/2000/svg">
<path d="M19.9864 2.83441C19.9074 2.36093 19.4959 2 19 2H15.8857L15.1886 1.32222C14.9829 1.12222 14.6857 1 14.3886 1H9.61143C9.31429 1 9.01715 1.12222 8.81143 1.32222L8.11429 2H5C4.44772 2 4 2.44772 4 3C4 3.55228 4.44772 4 5 4H19C19.4222 4 19.7833 3.73833 19.93 3.36831C19.9753 3.25741 20 3.13405 20 3C20 2.9418 19.9953 2.88662 19.9864 2.83441Z" fill="#1E1F1F"/>
<path d="M8.8879 14.5811C8.84554 14.0304 9.2576 13.5497 9.80826 13.5073C10.3589 13.465 10.8397 13.877 10.882 14.4277L11.1121 17.4189C11.1545 17.9695 10.7424 18.4503 10.1917 18.4926C9.64108 18.535 9.16035 18.1229 9.11799 17.5723L8.8879 14.5811Z" fill="#1E1F1F"/>
<path d="M14.2444 13.512C13.6948 13.458 13.2054 13.8598 13.1514 14.4094L12.8581 17.3951C12.8041 17.9447 13.2059 18.434 13.7556 18.488C14.3052 18.542 14.7946 18.1402 14.8486 17.5906L15.1419 14.605C15.1959 14.0553 14.7941 13.566 14.2444 13.512Z" fill="#1E1F1F"/>
<path fill-rule="evenodd" clip-rule="evenodd" d="M6.05439 5.5C5.16492 5.5 4.47083 6.26959 4.56235 7.15435L5.95891 20.6543C6.038 21.4189 6.68227 22 7.45094 22H16.5491C17.3177 22 17.962 21.4189 18.0411 20.6544L19.4376 7.15435C19.5292 6.26959 18.8351 5.5 17.9456 5.5H6.05439ZM7.90189 20L6.60878 7.5H17.3912L16.0981 20H7.90189Z" fill="#1E1F1F"/>
<path fill-rule="evenodd" clip-rule="evenodd" d="M6.83825 7.6501C6.74832 7.6501 6.6786 7.72868 6.68931 7.81797L8.11731 19.718C8.12636 19.7934 8.19031 19.8501 8.26625 19.8501H15.7339C15.8099 19.8501 15.8738 19.7934 15.8829 19.718L17.3109 7.81797C17.3216 7.72868 17.2519 7.6501 17.1619 7.6501H6.83825ZM6.39145 7.85371C6.35931 7.58585 6.56846 7.3501 6.83825 7.3501H17.1619C17.4317 7.3501 17.6409 7.58585 17.6087 7.85371L16.1807 19.7537C16.1536 19.9799 15.9617 20.1501 15.7339 20.1501H8.26625C8.03845 20.1501 7.84659 19.9799 7.81945 19.7537L6.39145 7.85371Z" fill="#F9FAFB"/>
</svg>
