<svg width="40" height="40" viewBox="0 0 40 40" fill="none" xmlns="http://www.w3.org/2000/svg">
<circle cx="20" cy="20" r="20" fill="#E6E9EB"/>
<rect width="24" height="24" transform="translate(8 8)" fill="#E6E9EB"/>
<path d="M21.4724 13.093C22.5779 13.093 23.4825 12.1721 23.4825 11.0465C23.4825 9.92093 22.5779 9 21.4724 9C20.3669 9 19.4624 9.92093 19.4624 11.0465C19.4624 12.1721 20.3669 13.093 21.4724 13.093ZM18.2866 25.3721L18.8594 22.814L20.9699 24.8605V29.9767C20.9699 30.5395 21.4222 31 21.9749 31C22.5277 31 22.98 30.5395 22.98 29.9767V24.2056C22.98 23.6428 22.7589 23.1107 22.3568 22.7219L20.8694 21.2791L21.4724 18.2093C22.5478 19.4781 24.1056 20.3888 25.8543 20.6753C26.4573 20.7674 27 20.2763 27 19.6521C27 19.1507 26.6382 18.7312 26.1457 18.6493C24.6181 18.3935 23.3518 17.4726 22.6785 16.2651L21.6734 14.6279C21.2714 14.014 20.6684 13.6047 19.9649 13.6047C19.6634 13.6047 19.4624 13.707 19.1609 13.707L15.161 15.426C14.4173 15.7535 13.9349 16.4902 13.9349 17.3191V19.7442C13.9349 20.307 14.3871 20.7674 14.9399 20.7674C15.4926 20.7674 15.9449 20.307 15.9449 19.7442V17.2884L17.7539 16.5721L16.1459 24.8605L12.2062 24.0419C11.6635 23.9293 11.1309 24.2874 11.0203 24.84V24.8809C10.9098 25.4335 11.2615 25.9758 11.8042 26.0884L15.9348 26.9274C17.0001 27.1423 18.0453 26.4567 18.2866 25.3721Z" fill="#3C73BD"/>
</svg>
