<svg width="20" height="16" viewBox="0 0 20 16" fill="none" xmlns="http://www.w3.org/2000/svg">
<path fill-rule="evenodd" clip-rule="evenodd" d="M18 2H2V14H18V8V2ZM2 0C0.895431 0 0 0.895431 0 2V14C0 15.1046 0.895431 16 2 16H18C19.1046 16 20 15.1046 20 14V2C20 0.895431 19.1046 0 18 0H2Z" fill="#474748"/>
<path fill-rule="evenodd" clip-rule="evenodd" d="M9.28017 3.50061C9.60362 3.51363 9.88221 3.73269 9.97114 4.04393L11.4415 9.69023L12.0792 8.41487C12.2062 8.1608 12.4659 8.00031 12.75 8.00031H15.25C15.6642 8.00031 16 8.33607 16 8.75025C16 9.16444 15.6642 9.5002 15.25 9.5002H13.2135L11.9208 12.0854C11.7825 12.362 11.4886 12.5254 11.1806 12.4968C10.8726 12.4681 10.6138 12.2534 10.5289 11.9561L9.15367 6.64266L8.45225 9.01358C8.34247 9.30628 8.06263 9.5002 7.75 9.5002H4.75C4.33579 9.5002 4 9.16444 4 8.75025C4 8.33607 4.33579 8.00031 4.75 8.00031H7.23025L8.54775 3.98663C8.66142 3.68355 8.95672 3.48759 9.28017 3.50061Z" fill="#474748"/>
</svg>
