<svg width="20" height="16" viewBox="0 0 20 16" fill="none" xmlns="http://www.w3.org/2000/svg">
<path fill-rule="evenodd" clip-rule="evenodd" d="M2 0C0.895431 0 0 0.895431 0 2V14C0 15.1046 0.895431 16 2 16H18C19.1046 16 20 15.1046 20 14V2C20 0.895431 19.1046 0 18 0H2ZM9.97114 4.04335C9.88221 3.73209 9.60362 3.51302 9.28017 3.49999C8.95672 3.48697 8.66142 3.68295 8.54775 3.98604L7.23025 8.00001H4.75C4.33579 8.00001 4 8.33579 4 8.75001C4 9.16422 4.33579 9.50001 4.75 9.50001H7.75C8.06263 9.50001 8.34247 9.30608 8.45225 9.01335L9.15367 6.64227L10.5289 11.956C10.6138 12.2534 10.8726 12.4682 11.1806 12.4968C11.4886 12.5254 11.7825 12.362 11.9208 12.0854L13.2135 9.50001H15.25C15.6642 9.50001 16 9.16422 16 8.75001C16 8.33579 15.6642 8.00001 15.25 8.00001H12.75C12.4659 8.00001 12.2062 8.16051 12.0792 8.4146L11.4415 9.69005L9.97114 4.04335Z" fill="#89C15D"/>
</svg>
